# xmcd
#
# Track frame offsets:
#	150
#	18253
#	55340
#	86948
#	109649
#	137128
#	185721
#	215002
#
# Disc length: 3397 seconds
#
# Revision: 0
# Processed by: cddbd v1.5.1PL0 Copyright (c) Steve Scherf et al.
# Submitted via: EasyCDDAExtractor 8.2.3.1
#
DISCID=740d4308
DTITLE=Álvaro Assmar - Live
DYEAR=1999
DGENRE=Blues
TTITLE0=Super Boogie
TTITLE1=Driftin' Blues
TTITLE2=Little by Little
TTITLE3=You Don't Love Me
TTITLE4=Dimples
TTITLE5=Ramblin' On My Mind
TTITLE6=You Got Me Runnin'
TTITLE7=The Sky Is Crying
EXTD=
EXTT0=
EXTT1=
EXTT2=
EXTT3=
EXTT4=
EXTT5=
EXTT6=
EXTT7=
PLAYORDER=
